<svg xmlns="http://www.w3.org/2000/svg" version="1.1" xmlns:xlink="http://www.w3.org/1999/xlink" width="2000" height="675" viewBox="0 0 2000 675"><svg xml:space="preserve" width="2000" height="675" data-version="2" data-id="lg_z5xYhnrwPNIVxqQGsv" viewBox="0 0 798 675" x="0" y="0"><rect width="100%" height="100%" fill="transparent"></rect><path fill="#fe4d01" d="M522.659 530.952a238.106 257.56 0 0 0 76.124-147.956l191.267-11.28-187.965-26.32v-4.7c0-115.432-72.3-213.474-172.496-247.972l-18.25-86.48-48.229 73.508q-6.083-.282-12.426-.376c-117.315 0-216.208 84.13-243.755 197.306L8.471 262.958c-1.13 3.948 0 155.288 0 155.288l100.457-5.922q5.04 18.33 12.6 35.532l-92.2 140.624 109.754 9.118 37.02-69.09a255.486 276.36 0 0 0 174.582 73.32c38.757 0 75.429-9.118 108.19-25.38l92.983 92.308zm-147.557-373.18 17.989 158.672-95.938-13.348zM223.288 292.944l-71.866-10.058c22.768-84.694 94.286-148.52 181.1-156.416zm19.466 111.484 159.2-9.4 15.903 140.718 6.257 6.11a217.25 235 0 0 1-73.43 14.006c-59.961 0-114.187-26.79-152.075-69.372zm249.837-14.946 60.483-3.572c-6.952 33.84-21.725 64.766-42.06 90.71zm-12.948-60.912-38.41-181.326c68.564 34.874 115.925 107.818 116.446 192.136z"></path></svg></svg>